<?xml version="1.0" encoding="iso-8859-1"?>
<!-- Generator: Adobe Illustrator 19.0.0, SVG Export Plug-In . SVG Version: 6.00 Build 0)  -->
<svg version="1.1" id="Layer_1" xmlns="http://www.w3.org/2000/svg" xmlns:xlink="http://www.w3.org/1999/xlink" x="0px" y="0px"
	 viewBox="0 0 512 512" style="enable-background:new 0 0 512 512;" xml:space="preserve">
<g>
	<g>
		<path d="M256,0C114.833,0,0,114.844,0,256s114.833,256,256,256s256-114.844,256-256S397.167,0,256,0z M341.333,352
			c0,5.896-4.771,10.667-10.667,10.667H288c-5.896,0-10.667-4.771-10.667-10.667v-49.031l-90.229,58
			c-3.292,2.104-7.5,2.229-10.875,0.396c-3.438-1.875-5.563-5.458-5.563-9.365V160c0-3.906,2.125-7.49,5.563-9.365
			c3.375-1.854,7.583-1.74,10.875,0.396l90.229,58V160c0-5.896,4.771-10.667,10.667-10.667h42.667
			c5.896,0,10.667,4.771,10.667,10.667V352z"/>
	</g>
</g>
<g>
</g>
<g>
</g>
<g>
</g>
<g>
</g>
<g>
</g>
<g>
</g>
<g>
</g>
<g>
</g>
<g>
</g>
<g>
</g>
<g>
</g>
<g>
</g>
<g>
</g>
<g>
</g>
<g>
</g>
</svg>
